<svg xmlns:xlink="http://www.w3.org/1999/xlink" xmlns="http://www.w3.org/2000/svg" width="279.254" height="63.025" viewBox="0 0 279.254 63.025">
  <g id="Group_5131" data-name="Group 5131" transform="translate(-1465.072 1053.709)">
    <path id="Path_8279" data-name="Path 8279" d="M1490.7-1002.422c-7.438,0-12.187-5.914-12.187-13.263v-.179c0-7.078,4.839-13.082,11.649-13.082,4.839,0,7.886,2.06,10.932,5.286l8.334-8.961c-4.48-5.017-10.126-8.064-19.176-8.064a24.659,24.659,0,0,0-25.18,25v.18a24.523,24.523,0,0,0,25,24.821c9.589,0,14.965-3.674,19.625-8.781l-7.975-8.065C1498.406-1004.394,1495.27-1002.422,1490.7-1002.422Z" fill="#ff4b6e"/>
    <rect id="Rectangle_84" data-name="Rectangle 84" width="13.62" height="40.862" transform="translate(1519.662 -1032.621)" fill="#ff4b6e"/>
    <rect id="Rectangle_85" data-name="Rectangle 85" width="13.62" height="60.307" transform="translate(1546.261 -1052.066)" fill="#ff4b6e"/>
    <path id="Path_8280" data-name="Path 8280" d="M1594.112-1040.685c-13.979,0-23.746,11.29-23.746,25v.18c0,14.7,10.664,24.821,25.09,24.821,8.692,0,15.144-3.4,19.625-8.96l-7.8-6.9c-3.763,3.494-7.078,4.928-11.648,4.928-6.094,0-10.4-3.225-11.739-9.409h33.424c.089-1.254.179-2.509.179-3.584C1617.5-1028.23,1610.152-1040.685,1594.112-1040.685Zm-10.4,21.148c1.076-6.184,4.75-10.216,10.4-10.216,5.735,0,9.32,4.122,10.126,10.216Z" fill="#ff4b6e"/>
    <path id="Path_8281" data-name="Path 8281" d="M1643.489-1052.066h-13.62v12.277h-5.735v11.649h5.735v22.761c0,11.111,5.645,14.426,13.978,14.426a20.09,20.09,0,0,0,10.754-2.777v-10.933a13.844,13.844,0,0,1-6.721,1.7c-3.046,0-4.391-1.524-4.391-4.66v-20.52h11.291v-11.649h-11.291Z" fill="#ff4b6e"/>
    <circle id="Ellipse_281" data-name="Ellipse 281" cx="7.492" cy="7.492" r="7.492" transform="translate(1518.98 -1053.709)" fill="#ff4b6e"/>
    <path id="Path_8282" data-name="Path 8282" d="M1711.926-1009.148a7.493,7.493,0,0,1-7.492-7.492,7.492,7.492,0,0,1,7.492-7.492h.031a25.994,25.994,0,0,0-24.894-18.526,25.987,25.987,0,0,0-25.987,25.986,25.987,25.987,0,0,0,25.987,25.987,25.993,25.993,0,0,0,24.876-18.465h-.013Zm-24.863,0a7.492,7.492,0,0,1-7.492-7.492,7.492,7.492,0,0,1,7.492-7.492,7.492,7.492,0,0,1,7.492,7.492A7.493,7.493,0,0,1,1687.063-1009.148Z" fill="#ff4b6e"/>
    <path id="Path_8283" data-name="Path 8283" d="M1711.957-1024.131h0v0q.25.838.444,1.7l.036.155c.128.585.24,1.176.329,1.774l.005.046c.079.54.137,1.087.182,1.637.011.136.022.272.031.409.038.573.064,1.148.064,1.731v.008c0,.586-.026,1.165-.065,1.742-.009.138-.02.275-.031.413-.046.559-.1,1.114-.186,1.661l0,.035c-.089.6-.2,1.182-.33,1.763-.015.072-.033.143-.049.214-.131.57-.277,1.134-.445,1.689a7.491,7.491,0,0,0,7.479-7.491A7.491,7.491,0,0,0,1711.957-1024.131Z" fill="#ff4b6e"/>
    <circle id="Ellipse_282" data-name="Ellipse 282" cx="7.492" cy="7.492" r="7.492" transform="translate(1729.342 -1024.132)" fill="#ff4b6e"/>
  </g>
</svg>