<svg width="523" height="327" viewBox="0 0 523 327" fill="none" xmlns="http://www.w3.org/2000/svg">
<g clip-path="url(#clip0_6_2192)">
<path d="M319.18 210.33C293.21 210.33 272.15 189.28 272.15 163.3C272.15 137.32 293.21 116.27 319.18 116.27C319.25 116.27 319.31 116.27 319.37 116.27C299.24 49.03 236.92 0 163.11 0C73.03 0 0 73.03 0 163.11C0 253.19 73.03 326.22 163.11 326.22C236.77 326.22 299.01 277.38 319.25 210.32C319.23 210.32 319.21 210.32 319.2 210.32C319.19 210.32 319.18 210.32 319.17 210.32L319.18 210.33ZM163.11 210.33C137.14 210.33 116.08 189.28 116.08 163.3C116.08 137.32 137.13 116.27 163.11 116.27C189.09 116.27 210.14 137.32 210.14 163.3C210.14 189.28 189.08 210.33 163.11 210.33Z" fill="#FF4B6E"/>
<path d="M319.37 116.29C319.37 116.29 319.37 116.31 319.37 116.32C320.42 119.83 321.34 123.39 322.15 127C322.23 127.32 322.3 127.65 322.38 127.97C323.19 131.64 323.89 135.35 324.44 139.11C324.45 139.21 324.46 139.3 324.48 139.4C324.97 142.79 325.34 146.22 325.62 149.68C325.69 150.53 325.76 151.39 325.82 152.24C326.06 155.83 326.22 159.45 326.22 163.1C326.22 163.1 326.22 163.12 326.22 163.13C326.22 163.14 326.22 163.15 326.22 163.16C326.22 166.84 326.05 170.47 325.81 174.09C325.75 174.96 325.68 175.82 325.61 176.69C325.32 180.2 324.95 183.68 324.44 187.12C324.43 187.19 324.42 187.27 324.41 187.34C323.86 191.07 323.15 194.76 322.34 198.41C322.24 198.86 322.13 199.31 322.03 199.75C321.21 203.33 320.29 206.87 319.24 210.35C345.17 210.3 366.18 189.27 366.18 163.33C366.18 137.39 345.23 116.42 319.35 116.31L319.37 116.29Z" fill="#FF4B6E"/>
<path d="M475.52 210.33C501.494 210.33 522.55 189.273 522.55 163.3C522.55 137.326 501.494 116.27 475.52 116.27C449.546 116.27 428.49 137.326 428.49 163.3C428.49 189.273 449.546 210.33 475.52 210.33Z" fill="#FF4B6E"/>
</g>
<defs>
<clipPath id="clip0_6_2192">
<rect width="522.54" height="326.23" fill="white"/>
</clipPath>
</defs>
</svg>
