<svg width="518" height="74" viewBox="0 0 518 74" fill="none" xmlns="http://www.w3.org/2000/svg">
  <g clip-path="url(#clip0_924_14763)">
    <path d="M347.53 65.13H334.86V24.03H347.53V30.69C350.21 25.41 354.35 23.22 359.39 23.22C367.43 23.22 372.63 28.42 372.63 38.01V65.14H359.96V41.74C359.96 36.7 358.34 34.27 354.27 34.27C350.61 34.27 347.53 36.79 347.53 43.37V65.14V65.13Z" fill="#FFFFFF"/>
    <path d="M398.62 65.94C387.17 65.94 379.37 59.28 379.37 47.26V41.98C379.37 29.88 387.01 23.21 398.79 23.21C410.57 23.21 417.39 30.2 417.39 42.71V48.07H392.45C392.53 49.04 392.69 49.86 392.86 50.67C393.75 53.68 395.95 55.3 399.36 55.3C402.45 55.3 403.83 53.92 404.64 52.62H417.15C415.61 60.82 408.95 65.94 398.63 65.94H398.62ZM405.2 40.43C404.79 35.88 402.93 33.61 398.86 33.61C394.79 33.61 392.77 36.21 392.44 40.43H405.19H405.2Z" fill="#FFFFFF"/>
    <path d="M437.29 65.13H424.62V24.03H437.29V30.85C440.05 25.73 443.79 23.21 448.82 23.21H450.69V35.88H447.93C441.76 35.88 437.29 38.48 437.29 45.46V65.12V65.13Z" fill="#FFFFFF"/>
    <path d="M481.24 59.85C479.05 63.99 475.15 65.94 470.11 65.94C461.5 65.94 454.51 59.28 454.51 47.26V41.98C454.51 29.88 461.5 23.21 470.11 23.21C475.55 23.21 479.21 25.49 481.24 29.38V5.82996H493.91V65.13H481.24V59.85ZM467.51 42.71V46.45C467.51 51.65 469.62 54.9 474.33 54.9C478.63 54.9 481.23 52.14 481.23 46.7V42.48C481.23 37.44 478.47 34.27 474 34.27C469.53 34.27 467.5 37.6 467.5 42.72L467.51 42.71Z" fill="#FFFFFF"/>
    <path d="M502.36 58.63C502.36 54.24 505.37 51.4 509.92 51.4C514.47 51.4 517.47 54.24 517.47 58.63C517.47 63.02 514.46 65.94 509.92 65.94C505.38 65.94 502.36 63.02 502.36 58.63Z" fill="#7C64F4"/>
    <path d="M160.11 6.83997H175.34C187.41 6.83997 193.24 11.21 193.24 20.29V22.56C193.24 28.23 190 31.88 184.57 33.66C192.02 35.2 196.23 39.49 196.23 46.7V48.89C196.23 58.69 188.53 63.55 177.36 63.55H160.11V6.83997ZM163.76 9.91997V32.52H176.15C185.14 32.52 189.52 28.55 189.52 22.72V20.21C189.52 13.41 185.15 9.91997 175.51 9.91997H163.76ZM163.76 35.52V60.47H177.29C187.5 60.47 192.52 55.85 192.52 48.97V46.62C192.52 39.81 187.5 35.52 177.29 35.52H163.76Z" fill="#FFFFFF"/>
    <path d="M203.94 14.71C203.94 13.01 205.32 11.71 207.1 11.71C208.88 11.71 210.34 13.01 210.34 14.71C210.34 16.41 208.96 17.71 207.1 17.71C205.24 17.71 203.94 16.41 203.94 14.71ZM205.32 26.21H208.97V65.09H205.32V26.21Z" fill="#FFFFFF"/>
    <path d="M224.76 58.29V65.09H221.11V5.95996H224.76V33.34C226.87 28.07 231.4 25.4 237.4 25.4C246.55 25.4 252.79 30.99 252.79 42.49V48.89C252.79 60.31 246.55 65.9 237.4 65.9C231.16 65.9 226.87 62.98 224.76 58.29ZM249.06 49.14V42.34C249.06 33.92 245.25 28.57 236.99 28.57C229.37 28.57 224.76 33.35 224.76 42.83V49.31C224.76 57.57 229.46 62.84 236.99 62.84C245.25 62.84 249.06 57.41 249.06 49.15V49.14Z" fill="#FFFFFF"/>
    <path d="M271.18 62.42H272.4V65.5H271.1C265.27 65.5 263 63.56 263 56.99V5.95996H266.65V57.32C266.65 61.21 267.86 62.42 271.19 62.42H271.18Z" fill="#FFFFFF"/>
    <path d="M278.87 14.71C278.87 13.01 280.25 11.71 282.03 11.71C283.81 11.71 285.27 13.01 285.27 14.71C285.27 16.41 283.89 17.71 282.03 17.71C280.17 17.71 278.87 16.41 278.87 14.71ZM280.25 26.21H283.9V65.09H280.25V26.21Z" fill="#FFFFFF"/>
    <path d="M294.34 48.81V42.33C294.34 30.99 300.5 25.4 310.06 25.4C319.62 25.4 326.02 30.99 326.02 42.33V48.81C326.02 60.31 319.7 65.9 310.06 65.9C300.42 65.9 294.34 60.31 294.34 48.81ZM298.07 42.17V49.06C298.07 57.4 301.8 62.83 310.06 62.83C318.32 62.83 322.29 57.4 322.29 49.06V42.17C322.29 33.91 318.48 28.56 310.06 28.56C301.64 28.56 298.07 33.91 298.07 42.17Z" fill="#FFFFFF"/>
    <path d="M108.87 0C98.32 0 89.33 6.68 85.89 16.04C84.31 15.23 82.53 14.76 80.63 14.76C78.73 14.76 76.96 15.22 75.38 16.04C71.93 6.68 62.95 0 52.39 0C41.91 0 32.98 6.58 29.48 15.83C26 15.1 20.36 14.11 14.9 14.09H14.87C10.93 14.09 7.32004 15.3 4.58004 17.5C1.85004 19.67 -0.00995987 23.01 4.01261e-05 26.72C4.01261e-05 29.2 0.83004 31.74 2.38004 34.04L8.72004 29.77C7.89004 28.52 7.64004 27.53 7.64004 26.71C7.64004 25.52 8.15004 24.45 9.36004 23.44C10.57 22.46 12.49 21.72 14.86 21.72H14.99C18.57 21.72 22.6 22.29 25.69 22.86C26.52 23.01 27.26 23.16 27.93 23.3C27.91 23.69 27.9 24.08 27.9 24.48C27.9 38.01 38.86 48.96 52.39 48.97C65.5 48.97 76.2 38.67 76.84 25.72C77.09 23.85 78.68 22.4 80.62 22.4C82.73 22.4 84.45 24.11 84.45 26.23C85.34 38.94 95.92 48.98 108.86 48.98C122.38 48.98 133.35 38.02 133.35 24.49C133.35 10.96 122.39 0 108.87 0ZM69.22 25C69.19 25.29 69.18 25.58 69.17 25.87C68.45 34.52 61.23 41.32 52.39 41.33C43.09 41.31 35.56 33.78 35.54 24.48C35.55 15.18 43.08 7.65 52.39 7.63C61.69 7.65 69.21 15.17 69.24 24.48C69.24 24.65 69.24 24.82 69.22 24.99V25ZM108.87 41.34C99.57 41.32 92.04 33.8 92.03 24.49C92.03 15.19 99.57 7.66 108.87 7.64C118.17 7.66 125.7 15.18 125.72 24.49C125.7 33.79 118.18 41.32 108.87 41.34ZM80.49 73.96C71.43 74.01 63.88 71.19 57.24 65.84C55.77 64.66 54.82 63.19 55.33 61.2C56.19 57.89 59.64 56.91 62.57 59.26C66.86 62.7 71.67 64.76 77.14 65.3C84.72 66.04 91.54 64.2 97.55 59.47C100.1 57.46 102.59 57.51 104.22 59.54C105.86 61.57 105.47 63.94 103.02 65.91C96.31 71.32 88.67 74.1 80.48 73.96H80.49Z" fill="url(#paint0_linear_924_14763)"/>
  </g>
  <defs>
    <linearGradient id="paint0_linear_924_14763" x1="4.22004" y1="58.84" x2="130.27" y2="15.28" gradientUnits="userSpaceOnUse">
      <stop stop-color="#7C64F4"/>
      <stop offset="1" stop-color="#ED82A0"/>
    </linearGradient>
    <clipPath id="clip0_924_14763">
      <rect width="517.47" height="73.96" fill="white"/>
    </clipPath>
  </defs>
</svg>
